<svg width="24" height="24" viewBox="0 0 24 24" fill="none" xmlns="http://www.w3.org/2000/svg">
<path fill-rule="evenodd" clip-rule="evenodd" d="M15.6586 22.484L15.5953 22.4825H15.6586V19.554L15.808 18.25C16.0143 16.5354 16.8308 14.9608 18.0992 13.8315C19.6965 12.3496 20.574 10.2138 20.4951 8C20.4951 3.589 16.796 0 12.25 0C7.70404 0 4.0049 3.589 4.0049 8C3.92601 10.2138 4.80355 12.3496 6.40083 13.8315C7.66923 14.9608 8.48572 16.5354 8.692 18.25L8.84138 19.5555V22.484C8.85616 23.1471 9.33361 23.7021 9.97047 23.7965C10.7244 23.9222 11.4863 23.9902 12.25 24C13.0137 23.9902 13.7756 23.9222 14.5295 23.7965C15.1664 23.7021 15.6438 23.1471 15.6586 22.484ZM17.1259 12.7165C15.6228 14.0544 14.6355 15.9419 14.3722 18H10.1277C9.86172 15.9366 8.87489 14.0523 7.35185 12.6963C6.09734 11.532 5.39588 9.82467 5.45991 8C5.45991 4.43851 8.4885 1.5 12.25 1.5C16.0115 1.5 19.0401 4.43851 19.0411 8.05506C19.1041 9.82467 18.4027 11.532 17.1259 12.7165ZM10.2964 19.5555V19.5H14.2036V22.331C13.5368 22.4363 12.885 22.4917 12.2319 22.5001C11.606 22.4916 10.9486 22.4351 10.296 22.331L10.2964 19.5555ZM13.22 11.5C13.22 11.5791 13.2289 11.656 13.2457 11.7298L12.2502 12.6764L11.2543 11.7294C11.2711 11.6557 11.28 11.5789 11.28 11.5C11.28 10.9477 10.8457 10.5 10.31 10.5C9.77425 10.5 9.33996 10.9477 9.33996 11.5C9.33996 12.0523 9.77425 12.5 10.31 12.5C10.3915 12.5 10.4706 12.4896 10.5463 12.4701L11.765 13.629V17H12.735V13.6295L13.9541 12.4702C14.0296 12.4897 14.1087 12.5 14.19 12.5C14.7257 12.5 15.16 12.0523 15.16 11.5C15.16 10.9477 14.7257 10.5 14.19 10.5C13.6543 10.5 13.22 10.9477 13.22 11.5ZM10.31 20.5V21.5H12.25V20.5H10.31Z" fill="#757677"/>
</svg>
