<svg width="24" height="24" viewBox="0 0 24 24" fill="none" xmlns="http://www.w3.org/2000/svg">
<path fill-rule="evenodd" clip-rule="evenodd" d="M23.2 14.8546C23.223 15.1214 22.3659 15.4287 22.3659 15.4287L24 16.3741C24 16.3741 23.7691 16.6533 23.3037 16.9071C23.8903 17.3715 23.9795 17.887 23.9795 18.429C23.9795 19.0962 23.7225 19.6752 22.8579 20.2167C23.2877 20.6076 23.711 22.049 23.711 22.4944C23.711 23.2561 21.5399 23.9893 21.0399 23.9893C20.5385 23.9893 16.5135 23.9948 13.7768 23.9948C12.5601 23.9948 11.4024 24.0013 10.3309 23.9948L1.9221 23.9723L0 5.47171H8.80451L10.0313 0.538513H10.0338C10.1125 0.229719 10.39 0 10.7231 0C10.7877 0 10.8493 0.0120114 10.9085 0.0275262L10.91 0.0250238L10.9986 0.0555529C11.0001 0.0560534 11.0006 0.0560534 11.0016 0.0570543L15.8642 1.71713L15.4034 3.06592L11.2276 1.63956L10.2743 5.47171H12.524L12.0796 10.0285C12.6627 9.99852 13.2609 9.982 13.8735 9.982C19.2571 9.982 23.6408 11.1186 23.6408 13.8016C23.6408 14.3021 23.3713 14.3201 23.0898 14.7741C23.1269 14.7986 23.1965 14.8081 23.2 14.8546V14.8546ZM6.23461 22.1009C6.74206 22.6023 7.91677 22.4947 7.91677 22.4947H13.5052H20.5189C20.5189 22.4947 21.111 22.4902 21.5669 22.0398C22.2206 21.3937 21.4176 20.4798 20.6046 20.4798C19.0041 20.4798 8.8976 20.4668 7.04363 20.4668C6.21357 20.4668 5.72716 21.5984 6.23461 22.1009V22.1009ZM13.9179 19.4281L22.8001 16.4883H5.39795L13.9179 19.4281ZM1.57373 6.97266L3.11963 22.4939H4.02984C4.01781 22.0485 4.54831 20.6542 4.97711 20.2633C4.11249 19.7223 3.70923 19.2368 3.70923 18.5692C3.70923 17.9966 3.86402 17.2209 4.51324 16.7369C3.70523 16.4592 3.57098 15.8901 4.08945 15.7375C4.66402 15.5668 4.72865 15.9602 5.06979 15.5218C4.40504 14.8647 4.02984 14.5874 4.02984 13.8012C4.02984 11.6761 6.83209 10.525 10.6693 10.1367L11.0204 6.97266H1.57373ZM13.873 11.4364C10.9721 11.4364 5.39862 12.0765 5.50382 13.8277C5.53588 14.3572 7.49405 14.9868 7.49405 14.9868H13.9046H20.268C20.268 14.9868 22.2021 14.2996 22.2157 13.8277C22.2673 12.075 16.6823 11.4364 13.873 11.4364V11.4364ZM0 5.47171C0.0195366 5.69442 0 5.51375 0 5.47171V5.47171Z" fill="#757677"/>
</svg>
