<svg width="24" height="24" viewBox="0 0 24 24" fill="none" xmlns="http://www.w3.org/2000/svg">
<path fill-rule="evenodd" clip-rule="evenodd" d="M21.4163 9.76094C22.8477 8.10182 24.769 4.34112 22.1145 1.536C21.1839 0.552855 20.0284 0.0221971 18.7719 0.00115117C16.2964 -0.0404396 14.2827 1.87925 14.0613 2.09823L14.0608 2.09873C13.519 1.99099 12.9387 1.92986 12.315 1.92986C11.5073 1.92986 10.7646 2.03258 10.0784 2.20796L9.96241 2.10173L9.95841 2.09873C9.737 1.87925 7.72331 -0.0404396 5.2478 0.000650074C3.9918 0.021696 2.83577 0.552354 1.90464 1.5365C-0.7438 4.3351 1.16394 8.08478 2.59386 9.74992C1.60276 10.683 -0.710813 13.2836 0.213817 16.5678C1.56528 21.3713 5.79158 21.5336 6.07447 21.5386H6.83566C8.13814 23.2363 10.3637 24 12.0086 24C13.519 24 15.7596 23.3521 17.1485 21.5386H17.9107C18.2086 21.5336 22.4349 21.3713 23.7864 16.5678C24.7085 13.2901 22.4069 10.6945 21.4163 9.76094ZM22.3429 16.1594C21.3009 19.864 18.2416 20.0288 17.9107 20.0359H16.6057C16.2084 20.0359 15.886 20.346 15.86 20.7379C14.776 22.0467 13.0397 22.4967 12.0086 22.4967C11 22.4967 9.28568 22.0628 8.19412 20.8171C8.19435 20.8122 8.19512 20.8076 8.19588 20.8031C8.19676 20.7979 8.19762 20.7929 8.19762 20.7875C8.19762 20.3716 7.86225 20.0359 7.44792 20.0359H6.10346C5.75809 20.0288 2.69882 19.864 1.65674 16.1594C0.789586 13.0797 3.80138 10.6764 3.92533 10.5792L4.29968 10.2876L4.44262 9.83661C4.52459 9.57554 6.53428 3.43364 12.315 3.43364C18.0002 3.43364 19.4671 9.4668 19.5256 9.71835L19.6485 10.2455L20.0699 10.5752C20.1983 10.6764 23.2096 13.0797 22.3429 16.1594ZM5.27283 1.50436C4.51264 1.51689 3.72145 1.80151 2.99225 2.57169C1.07052 4.60262 2.64588 7.29449 3.41708 8.36383C4.08431 6.8861 5.63469 4.1807 8.47355 2.79668C7.8438 2.29759 6.6083 1.48181 5.27283 1.50436ZM18.7464 1.50443C19.5066 1.51646 20.2983 1.80108 21.0265 2.57126C22.9137 4.56461 21.4318 7.19334 20.6471 8.30075C20.0649 6.74687 18.6574 3.94576 15.7521 2.6384C16.4233 2.14282 17.5454 1.48439 18.7464 1.50443ZM12.6519 19.7874C12.7234 19.8616 12.8343 19.9172 13.0023 19.9172C13.5125 19.9172 13.534 19.4231 13.534 19.4176L14.5331 19.4627V19.4672C14.5017 20.1717 13.9544 20.9194 13.0023 20.9194C12.6169 20.9194 12.268 20.7836 12.0027 20.542C11.7368 20.7836 11.3879 20.9194 11.0031 20.9194C10.0509 20.9194 9.50416 20.1717 9.47217 19.4672V19.4627L10.4713 19.4176C10.4713 19.4231 10.4933 19.9172 11.0031 19.9172C11.171 19.9172 11.2814 19.8616 11.3534 19.7874C11.4964 19.6406 11.4909 19.4231 11.4909 19.4231V18.3272C10.7072 17.9689 9.79654 16.9422 9.79654 16.2772C9.79654 15.46 10.6207 15.46 10.6207 15.46H11.9947H13.3696C13.3696 15.46 14.1943 15.46 14.1943 16.2772C14.1943 16.9387 13.2946 17.9554 12.5139 18.3197V19.4231C12.5139 19.4231 12.509 19.6406 12.6519 19.7874ZM16.4854 10.9502C15.9337 10.9502 15.4858 11.6237 15.4858 12.454C15.4858 13.2833 15.9337 13.9568 16.4854 13.9568C17.0377 13.9568 17.485 13.2833 17.485 12.454C17.485 11.6237 17.0377 10.9502 16.4854 10.9502ZM6.48926 12.454C6.48926 11.6237 6.93708 10.9502 7.48886 10.9502C8.04114 10.9502 8.48846 11.6237 8.48846 12.454C8.48846 13.2833 8.04114 13.9568 7.48886 13.9568C6.93708 13.9568 6.48926 13.2833 6.48926 12.454Z" fill="#757677"/>
</svg>
