<svg width="24" height="24" viewBox="0 0 24 24" fill="none" xmlns="http://www.w3.org/2000/svg">
<path d="M20.9011 21.3012C23.9385 18.2639 24.4334 14.4793 22.3762 10.1611L19.494 4.10581C19.3194 3.71766 19.0865 3.40713 18.8342 3.15483C17.9414 2.26206 16.6411 2.30088 15.7774 3.17423C15.1855 3.75648 15.0011 4.64924 15.4087 5.62934L16.4276 8.02622C16.447 8.08444 16.447 8.13297 16.4082 8.17178C16.3694 8.2106 16.3112 8.20089 16.2627 8.16207L8.88761 0.777359C7.88812 -0.22215 6.64601 -0.22215 5.71443 0.709431C5.34568 1.06848 5.1419 1.53427 5.1419 2.01946C4.1618 1.22374 3.03614 1.21404 2.17249 2.07769C1.32824 2.92194 1.31854 4.09612 2.07545 5.05681C1.60966 5.05681 1.17298 5.25089 0.833338 5.58082C-0.0400158 6.45418 -0.0206079 7.66718 0.940085 8.62786L1.98811 9.67586C1.49321 9.65649 1.00801 9.87965 0.629558 10.2582C-0.243799 11.1314 -0.214687 12.3833 0.75571 13.3537L8.30539 20.9034C12.4199 25.0179 17.2913 24.9111 20.9011 21.3012ZM19.8143 20.2823C16.7285 23.3585 12.7983 23.3682 9.20783 19.7778L1.87167 12.4415C1.44469 12.0146 1.40588 11.4711 1.81344 11.0635C2.21131 10.6657 2.79354 10.6754 3.21081 11.0927L7.69404 15.5662C7.99487 15.8767 8.42182 15.8379 8.67413 15.5856C8.93613 15.3236 8.97497 14.8966 8.67413 14.5958L1.9493 7.87096C1.52232 7.44398 1.48351 6.90056 1.89108 6.493C2.28894 6.09513 2.87117 6.09513 3.28845 6.5221L9.56688 12.7909C9.86772 13.1014 10.2947 13.0626 10.5373 12.8103C10.809 12.5483 10.8478 12.1213 10.5373 11.8108L3.20111 4.47457C2.77413 4.04759 2.74502 3.46536 3.15258 3.05779C3.54074 2.66963 4.12299 2.70844 4.54996 3.13542L11.8958 10.4716C12.1676 10.753 12.5946 10.7627 12.8662 10.4813C13.1379 10.2096 13.1477 9.77291 12.8662 9.49154L6.5975 3.22276C6.17052 2.79578 6.16082 2.22325 6.55868 1.82539C6.96624 1.41782 7.51937 1.44693 7.94635 1.87391L16.6023 10.5299C17.0098 10.9471 17.5048 10.9374 17.8541 10.5881C18.1549 10.2872 18.2714 9.89911 18.0385 9.31681L16.4568 5.25089C16.2045 4.63954 16.4082 4.14463 16.8837 3.92144C17.3883 3.67884 17.8638 3.93115 18.1549 4.56191L21.1049 10.7627C22.9681 14.7025 22.2888 17.7981 19.8143 20.2823Z" fill="#757677" fill-opacity="0.85"/>
</svg>
