<svg width="24" height="24" viewBox="0 0 24 24" fill="none" xmlns="http://www.w3.org/2000/svg">
<path fill-rule="evenodd" clip-rule="evenodd" d="M12.896 3.44994C12.896 3.44994 14.664 2.50395 16 2.50395C17.0636 2.53331 18.0973 2.84149 19 3.39297V12.2133C18.0629 11.7717 17.0398 11.5368 16 11.5273C14.7448 11.5756 13.5138 11.8881 12.387 12.4448C11.3555 13.0527 10.1946 13.4062 9 13.476C6.5 13.476 5.5 11.9911 5.5 11.9911V3.47851C5.5 3.47851 6.5 4.39592 9 4.39592C10.3519 4.36903 11.6816 4.04616 12.896 3.44994ZM5.5 1.46372V1.44434H4V22.4997H5.5V13.864C5.5 13.864 6.5 14.9233 9 14.9233C10.3519 14.8964 11.6816 14.5735 12.896 13.9773C12.896 13.9773 14.664 13.0313 16 13.0313C17.228 13.0424 18.4328 13.3681 19.5 13.9773L20.5 14.6395V13.4763V13.1356V4.11218V2.81577V2.60823L19.5 1.94599C18.4328 1.33677 17.228 1.01113 16 1C14.7448 1.04821 13.5138 1.36079 12.387 1.91741C11.3555 2.5254 10.1946 2.87885 9 2.94862C6.5 2.94862 5.5 1.46372 5.5 1.46372Z" fill="#757677"/>
</svg>
