<svg width="24" height="24" viewBox="0 0 24 24" fill="none" xmlns="http://www.w3.org/2000/svg">
<path fill-rule="evenodd" clip-rule="evenodd" d="M17.313 0L17.2758 7.52875C17.2758 7.52875 15.8407 7.1859 14.8448 7.72808C13.2575 8.59467 13.2672 9.82455 13.6178 10.7778C14.2316 12.4472 18.8453 11.6415 18.8453 8.42225V1.98235C18.8453 1.98235 21.0616 3.08366 21.2127 5.14425C21.2721 5.95171 20.9012 6.60492 20.6011 7.13346C20.3044 7.65589 20.077 8.05653 20.4025 8.36395C20.4025 8.36395 22.2662 6.68159 22.3003 5.07199C22.374 1.47705 19.745 0 17.314 0H17.313ZM10.9744 23.8926H9.09145L8.07364 22.7768C7.21282 23.5306 6.10262 23.9539 4.94794 23.9688C2.98713 23.9688 1.49756 22.8212 1.49756 21.0446C1.49756 19.7226 2.323 18.9108 3.45939 18.2834C3.58662 18.2086 3.72148 18.1419 3.86346 18.0751C3.18967 17.369 2.60596 16.6703 2.60596 15.7484C2.60596 14.4647 3.71333 13.4062 5.26295 13.4062C6.7225 13.4062 7.91995 14.3536 7.91995 15.7584C7.91995 17.0226 6.92402 17.7437 5.77898 18.3457L7.95863 20.8139C8.3301 20.0302 8.50344 19.1704 8.46397 18.3073V17.9206H9.79679V18.3517C9.86269 19.5585 9.57431 20.7586 8.96575 21.8101L10.9744 23.8926ZM4.62633 18.9482C4.51437 19.0001 4.40954 19.0524 4.3047 19.1117C3.49605 19.5427 2.94236 20.0715 2.94287 20.9331C2.94287 22.1151 3.91234 22.5706 5.02023 22.5706C5.82681 22.6057 6.61357 22.3197 7.2014 21.7778L4.62633 18.9482ZM5.01751 17.5434L5.01699 17.5429C5.92232 17.0896 6.57272 16.6436 6.57272 15.8261C6.5945 15.3574 6.35102 14.915 5.93923 14.675C5.52745 14.4351 5.01421 14.4366 4.60387 14.6789C4.19353 14.9212 3.95272 15.365 3.9773 15.8336C3.9773 16.3473 4.23165 16.7778 5.01699 17.5429L5.01598 17.5434H5.01751ZM18.5702 18.7029L14.9213 23.9528L13.0669 23.9997L17.1677 18.5265L20.929 13.4336H22.7305L18.5702 18.7029ZM11.687 5.47065L7.1068 5.47193V11.4511H5.58008V5.47236L1 5.47364V3.97566H11.687V5.47065ZM11.687 0.985352H1V2.48034H11.687V0.985352ZM20.8665 23.9125C19.5265 23.9125 18.7632 22.7948 18.7632 21.3845V21.1762C18.7632 19.8023 19.5484 18.6846 20.8813 18.6846C22.2141 18.6846 22.9998 19.7869 22.9998 21.1897V21.3995C22.9998 22.7574 22.2288 23.9125 20.8665 23.9125ZM20.889 19.8389C20.2524 19.8389 19.9409 20.4369 19.9409 21.2476V21.3074C19.9409 22.1715 20.2788 22.7496 20.8824 22.7496C21.4722 22.7496 21.8239 22.185 21.8239 21.3209V21.2611C21.8239 20.4035 21.4997 19.8389 20.889 19.8389ZM12.6562 16.1374C12.6562 17.5477 13.4196 18.6654 14.7596 18.6654C16.1219 18.6654 16.8929 17.5103 16.8929 16.1524V15.9446C16.8929 14.5418 16.1071 13.4395 14.7743 13.4395C13.4415 13.4395 12.6562 14.5572 12.6562 15.9311V16.1374ZM13.8389 16.0019C13.8389 15.1951 14.1493 14.5996 14.7829 14.5996C15.39 14.5996 15.7137 15.1617 15.7137 16.0149V16.0742C15.7137 16.9343 15.3641 17.4964 14.7763 17.4964C14.1758 17.4964 13.8389 16.9208 13.8389 16.0612V16.0044V16.0019Z" fill="#757677"/>
</svg>
