<svg width="24" height="24" viewBox="0 0 24 24" fill="none" xmlns="http://www.w3.org/2000/svg">
<path fill-rule="evenodd" clip-rule="evenodd" d="M5 0H15.5V5.9845H24V22.4845H22.5V9V7.5H15.5V9H14V1.5H6.5L6.48716 10.5H1.5V22.4845H0V8.9845H5.01033L5 0ZM3 11.9845H4.5V13.4845H3V11.9845ZM12.5 6H11V7.5H12.5V6ZM8 6H9.5V7.5H8V6ZM21 8.9845H19.5V10.4845H21V8.9845ZM19.5 11.9845H21V13.4845H19.5V11.9845ZM9.5 3L8 2.9845V4.5H9.5V3ZM11 3H12.5V4.5H11V3ZM19.5 16H18V14.5C17.9113 11.9793 15.8348 9.98573 13.3125 10H10.6875C8.16525 9.98573 6.08865 11.9793 6 14.5V16H4.5C3.94772 16 3.5 16.4477 3.5 17V21C3.5 21.5523 3.94772 22 4.5 22V24H7.5V22H16.5V24H19.5V22C20.0523 22 20.5 21.5523 20.5 21V17C20.5 16.4477 20.0523 16 19.5 16ZM16.5 16C16.5 13.7125 16.5 11.5 12 11.5C7.5 11.5 7.5 13.715 7.5 16H16.5ZM6.219 17.1095C6.84032 17.1095 7.344 17.6132 7.344 18.2345C7.344 18.8558 6.84032 19.3595 6.219 19.3595C5.59768 19.3595 5.094 18.8558 5.094 18.2345C5.094 17.6132 5.59768 17.1095 6.219 17.1095ZM18.8755 18.2345C18.8755 17.6132 18.3718 17.1095 17.7505 17.1095H17.75C17.1289 17.1098 16.6255 17.6134 16.6255 18.2345C16.6255 18.8558 17.1292 19.3595 17.7505 19.3595C18.3718 19.3595 18.8755 18.8558 18.8755 18.2345ZM19.5 20V20.9845H15.25H8.75H4.5V20H8.25V19.9845C8.25 19.7084 8.47386 19.4845 8.75 19.4845H15.25C15.5261 19.4845 15.75 19.7084 15.75 19.9845V20H19.5Z" fill="#757677"/>
</svg>
