<svg width="24" height="24" viewBox="0 0 24 24" fill="none" xmlns="http://www.w3.org/2000/svg">
<path fill-rule="evenodd" clip-rule="evenodd" d="M0 12C0 18.6274 5.37258 24 12 24C18.6274 24 24 18.6274 24 12C24 5.37258 18.6274 0 12 0C5.37258 0 0 5.37258 0 12ZM20.3445 13.3327L20.3282 13.3068L22.3439 12.8417L22.5503 13.2273C22.2243 16.0619 20.7821 18.557 18.6745 20.2619L17.857 20.0547L17.8604 17.0606L20.3445 13.3327ZM16.8487 20.582L16.9176 17.5531L13.9962 16.4583L10.4583 18.363V20.5391L14.8374 22.1348L14.8247 22.0209L16.8487 20.582ZM13.4917 11.8463V15.6681L9.97558 17.5628L6.29958 15.5204L6.28049 11.4443L9.29306 9.49067L13.4917 11.8463ZM16.927 9.61402L14.0552 11.0864L9.87239 8.73716L9.63049 5.53799L13.8418 3.3465L16.9319 5.29353L16.927 9.61402ZM17.8667 5.65448L17.8619 9.39868L19.7902 12.4544L22.2349 11.8037L22.5028 10.4141C22.1775 8.24217 21.1946 6.28534 19.7631 4.75275L17.8667 5.65448ZM13.4663 2.46623V1.48029C12.987 1.41409 12.4974 1.37988 11.9999 1.37988C9.74994 1.37988 7.66338 2.07954 5.94593 3.27315L6.33625 4.55957H9.44367L13.4663 2.46623ZM5.34473 11.3738L3.67693 9.03904L1.57168 9.97818C1.44548 10.6328 1.37939 11.3089 1.37939 12.0004C1.37939 14.0291 1.94818 15.9249 2.93499 17.5371L3.8047 17.3982L3.73047 17.3134L5.36339 15.6805L5.34473 11.3738ZM3.53249 7.98795L5.45781 4.90769L5.12628 3.90391C3.64313 5.16429 2.51073 6.82495 1.89605 8.71891L3.53249 7.98795ZM3.50902 18.3811L4.52223 18.2183L6.82232 20.8471L6.81184 21.2697C5.51993 20.545 4.39494 19.5581 3.50902 18.3811ZM7.73585 21.7303L7.74398 21.4538H10.0897L13.0396 22.5707C12.6975 22.6039 12.3507 22.6209 11.9999 22.6209C10.4833 22.6209 9.04096 22.303 7.73585 21.7303Z" fill="#757677"/>
</svg>
