<svg width="24" height="24" viewBox="0 0 24 24" fill="none" xmlns="http://www.w3.org/2000/svg">
<path fill-rule="evenodd" clip-rule="evenodd" d="M24 12C24 5.37258 18.6274 0 12 0C5.37258 0 0 5.37258 0 12C0 18.6274 5.37258 24 12 24C18.6274 24 24 18.6274 24 12ZM22.5155 12C22.5155 6.20101 17.8145 1.5 12.0155 1.5C6.21651 1.5 1.5155 6.20101 1.5155 12C1.5155 17.799 6.21651 22.5 12.0155 22.5C17.8145 22.5 22.5155 17.799 22.5155 12ZM15.5 7.5C16.0524 7.5 16.5 8.1715 16.5 9C16.5 9.8285 16.0524 10.5 15.5 10.5C14.9476 10.5 14.5 9.8285 14.5 9C14.5 8.1715 14.9476 7.5 15.5 7.5ZM9.5 9C9.5 8.171 9.05234 7.5 8.5 7.5C7.94766 7.5 7.5 8.171 7.5 9C7.5 9.829 7.94543 10.5 8.5 10.5C9.05457 10.5 9.5 9.829 9.5 9ZM12.009 14.4872C14.1043 14.4872 15.9991 14.0449 17.3599 13.7272C18.6891 13.417 19.509 13.2256 19.509 13.6814C19.509 17.7246 16.1511 21.0023 12.009 21.0023C7.86686 21.0023 4.509 17.7246 4.509 13.6814C4.509 13.2256 5.32888 13.417 6.6581 13.7272C8.01894 14.0449 9.91365 14.4872 12.009 14.4872ZM16.6439 15.1564C15.5962 15.4239 13.9905 15.8341 12 15.8341C10.0095 15.8341 8.40377 15.4239 7.3561 15.1564C6.48524 14.9339 6 14.81 6 15.102C6 17.9044 10.362 18.0304 12 18.0304C13.839 18.0304 18 17.904 18 15.102C18 14.81 17.5148 14.9339 16.6439 15.1564Z" fill="#757677"/>
</svg>
